<svg width="25" height="25" viewBox="0 0 25 25" fill="none" xmlns="http://www.w3.org/2000/svg">
<path d="M17.0664 7.69551C16.593 8.16202 15.8327 8.16202 15.3593 7.69551L13.6139 5.97561L11.8684 7.69551C11.395 8.16202 10.6347 8.16202 10.1613 7.69551V7.69551C9.67788 7.21918 9.67788 6.43936 10.1613 5.96303L11.8812 4.26829L10.1613 2.57356C9.67788 2.09723 9.67788 1.31741 10.1613 0.841075V0.841075C10.6347 0.37457 11.395 0.37457 11.8684 0.841074L13.6139 2.56098L15.3593 0.841075C15.8327 0.37457 16.593 0.37457 17.0664 0.841075V0.841075C17.5498 1.31741 17.5498 2.09723 17.0664 2.57356L15.3465 4.26829L17.0664 5.96303C17.5498 6.43936 17.5498 7.21918 17.0664 7.69551V7.69551ZM7.42574 20.122C8.78713 20.122 9.90099 21.2195 9.90099 22.561C9.90099 23.9024 8.78713 25 7.42574 25C6.06436 25 4.95049 23.9024 4.95049 22.561C4.95049 21.2195 6.06436 20.122 7.42574 20.122ZM19.802 20.122C21.1634 20.122 22.2772 21.2195 22.2772 22.561C22.2772 23.9024 21.1634 25 19.802 25C18.4406 25 17.3267 23.9024 17.3267 22.561C17.3267 21.2195 18.4406 20.122 19.802 20.122ZM7.67327 16.2195C7.67327 16.3415 7.79703 16.4634 7.92079 16.4634H21.0577C21.7312 16.4634 22.2772 17.0094 22.2772 17.6829V17.6829C22.2772 18.3564 21.7312 18.9024 21.0577 18.9024H7.42574C6.06436 18.9024 4.95049 17.8049 4.95049 16.4634C4.95049 15.9756 5.07426 15.6098 5.19802 15.2439L6.80693 12.3171L2.47525 3.04878H1.21951C0.545994 3.04878 0 2.50279 0 1.82927V1.82927C0 1.15575 0.545994 0.609756 1.21951 0.609756H4.08416L9.40594 11.5854H18.0693L22.2912 4.11855C22.6242 3.52959 23.3739 3.32577 23.9593 3.66506V3.66506C24.5358 3.99926 24.7359 4.7353 24.4079 5.31541L20.1733 12.8049C19.802 13.5366 18.9356 14.0244 18.0693 14.0244H8.78713L7.67327 15.9756V16.2195Z" fill="white"/>
</svg>
