<svg width="44" height="38" viewBox="0 0 44 38" fill="none" xmlns="http://www.w3.org/2000/svg">
<path d="M37.8025 27.0727H14.2346L9.22681 5.81738H41.96L37.8025 27.0727Z" stroke="#F1758F" stroke-width="4" stroke-linecap="round" stroke-linejoin="round"/>
<path d="M19.4294 35.9999C20.1337 35.9999 20.7047 35.4289 20.7047 34.7245C20.7047 34.0202 20.1337 33.4492 19.4294 33.4492C18.725 33.4492 18.1541 34.0202 18.1541 34.7245C18.1541 35.4289 18.725 35.9999 19.4294 35.9999Z" stroke="#F1758F" stroke-width="4" stroke-linecap="round" stroke-linejoin="round"/>
<path d="M32.1825 35.9999C32.8869 35.9999 33.4579 35.4289 33.4579 34.7245C33.4579 34.0202 32.8869 33.4492 32.1825 33.4492C31.4782 33.4492 30.9072 34.0202 30.9072 34.7245C30.9072 35.4289 31.4782 35.9999 32.1825 35.9999Z" stroke="#F1758F" stroke-width="4" stroke-linecap="round" stroke-linejoin="round"/>
<path d="M39.4096 16.4451H27.5066" stroke="#F1758F" stroke-width="4" stroke-linecap="round" stroke-linejoin="round"/>
<path d="M9.27785 5.97048L7.09279 3.79394C6.03983 2.73822 4.62894 2.11623 3.13931 2.05101L2 2" stroke="#F1758F" stroke-width="4" stroke-linecap="round" stroke-linejoin="round"/>
</svg>
