<svg width="49" height="49" viewBox="0 0 49 49" fill="none" xmlns="http://www.w3.org/2000/svg">
<circle cx="24.5" cy="24.5" r="24.5" fill="#F2758F"/>
<path d="M32.3528 33.0942C31.9464 33.4767 31.3952 33.6917 30.8205 33.6917C30.2458 33.6917 29.6946 33.4767 29.2882 33.0942L24.5009 27.9432L19.7136 33.0925C19.513 33.2845 19.2739 33.4371 19.0103 33.5417C18.7467 33.6463 18.4637 33.7007 18.1777 33.7018C17.8916 33.7029 17.6081 33.6506 17.3436 33.5481C17.0791 33.4455 16.8388 33.2947 16.6365 33.1043C16.4342 32.9139 16.274 32.6876 16.1651 32.4386C16.0561 32.1896 16.0007 31.9228 16.0018 31.6535C16.003 31.3842 16.0608 31.1178 16.1719 30.8696C16.2829 30.6215 16.4451 30.3965 16.649 30.2076L21.6296 24.8526L16.6472 19.4942C16.4433 19.3053 16.2811 19.0803 16.1701 18.8322C16.059 18.584 16.0012 18.3176 16 18.0483C15.9989 17.779 16.0543 17.5122 16.1633 17.2632C16.2722 17.0142 16.4324 16.7879 16.6347 16.5975C16.837 16.4071 17.0773 16.2562 17.3418 16.1537C17.6063 16.0512 17.8898 15.9989 18.1759 16C18.4619 16.0011 18.7449 16.0555 19.0085 16.1601C19.2721 16.2647 19.5112 16.4173 19.7118 16.6093L24.5009 21.762L29.2882 16.6093C29.4889 16.4173 29.7279 16.2647 29.9915 16.1601C30.2551 16.0555 30.5381 16.0011 30.8241 16C31.1102 15.9989 31.3937 16.0512 31.6582 16.1537C31.9227 16.2562 32.163 16.4071 32.3653 16.5975C32.5676 16.7879 32.7278 17.0142 32.8367 17.2632C32.9457 17.5122 33.0011 17.779 33 18.0483C32.9988 18.3176 32.941 18.584 32.8299 18.8322C32.7189 19.0803 32.5567 19.3053 32.3528 19.4942L27.3722 24.8526L32.3528 30.2076C32.5542 30.3971 32.7141 30.622 32.8231 30.8697C32.9322 31.1174 32.9883 31.3828 32.9883 31.6509C32.9883 31.919 32.9322 32.1844 32.8231 32.4321C32.7141 32.6797 32.5542 32.9047 32.3528 33.0942Z" fill="white"/>
</svg>
