<svg width="51" height="51" viewBox="0 0 51 51" fill="none" xmlns="http://www.w3.org/2000/svg">
<circle cx="25.5" cy="25.5" r="23.5" fill="white" stroke="#F1758F" stroke-width="3"/>
<path d="M33.0325 33.7434C32.6427 34.1103 32.114 34.3165 31.5627 34.3165C31.0115 34.3165 30.4828 34.1103 30.093 33.7434L25.5011 28.8026L20.9092 33.7418C20.7167 33.9259 20.4875 34.0723 20.2346 34.1726C19.9818 34.2729 19.7103 34.3251 19.4359 34.3262C19.1616 34.3272 18.8897 34.2771 18.636 34.1788C18.3822 34.0804 18.1517 33.9357 17.9577 33.7531C17.7637 33.5704 17.61 33.3534 17.5055 33.1146C17.401 32.8757 17.3478 32.6198 17.3489 32.3615C17.35 32.1032 17.4055 31.8477 17.512 31.6096C17.6186 31.3716 17.7741 31.1558 17.9697 30.9746L22.747 25.8382L17.968 20.6985C17.7724 20.5173 17.6168 20.3015 17.5103 20.0635C17.4037 19.8255 17.3483 19.5699 17.3472 19.3116C17.3461 19.0533 17.3993 18.7974 17.5038 18.5585C17.6083 18.3197 17.7619 18.1027 17.956 17.92C18.15 17.7374 18.3805 17.5927 18.6342 17.4944C18.8879 17.396 19.1598 17.3459 19.4342 17.3469C19.7086 17.348 19.98 17.4002 20.2329 17.5005C20.4858 17.6008 20.715 17.7472 20.9074 17.9314L25.5011 22.8737L30.093 17.9314C30.2855 17.7472 30.5147 17.6008 30.7676 17.5005C31.0204 17.4002 31.2919 17.348 31.5662 17.3469C31.8406 17.3459 32.1125 17.396 32.3662 17.4944C32.62 17.5927 32.8505 17.7374 33.0445 17.92C33.2385 18.1027 33.3922 18.3197 33.4967 18.5585C33.6012 18.7974 33.6544 19.0533 33.6533 19.3116C33.6522 19.5699 33.5967 19.8255 33.4902 20.0635C33.3836 20.3015 33.2281 20.5173 33.0325 20.6985L28.2552 25.8382L33.0325 30.9746C33.2257 31.1563 33.379 31.3722 33.4836 31.6097C33.5882 31.8472 33.6421 32.1019 33.6421 32.359C33.6421 32.6162 33.5882 32.8708 33.4836 33.1083C33.379 33.3459 33.2257 33.5617 33.0325 33.7434Z" fill="#F1758F"/>
</svg>
