<svg width="46" height="36" viewBox="0 0 46 36" fill="none" xmlns="http://www.w3.org/2000/svg">
<path d="M30.1902 16.97C30.235 17.4255 30.235 17.8844 30.1902 18.34C30.1146 19.2699 29.8563 20.1758 29.4303 21.0059C29.0043 21.836 28.4189 22.5739 27.7075 23.1776C26.9961 23.7813 26.1726 24.2388 25.2843 24.524C24.396 24.8093 23.4601 24.9166 22.5303 24.84" stroke="#757575" stroke-width="5" stroke-linecap="round" stroke-linejoin="round"/>
<path d="M16.6897 21.0701C16.1233 19.9652 15.861 18.7297 15.9296 17.49C15.9862 16.3077 16.3374 15.1583 16.9514 14.1462C17.5654 13.1342 18.4226 12.2918 19.4452 11.6955C20.4678 11.0993 21.6232 10.7682 22.8064 10.7323C23.9895 10.6964 25.1629 10.9569 26.2197 11.49" stroke="#757575" stroke-width="5" stroke-linecap="round" stroke-linejoin="round"/>
<path d="M37.7598 8.91992C40.1557 11.2285 41.9688 14.0732 43.0497 17.2199" stroke="#757575" stroke-width="5" stroke-linecap="round" stroke-linejoin="round"/>
<path d="M3 18.13C3.86177 15.1699 5.36472 12.4358 7.40213 10.122C9.43954 7.80819 11.9614 5.97136 14.7887 4.74195C17.6159 3.51254 20.6792 2.92072 23.761 3.00852C26.8427 3.09632 29.8673 3.86159 32.62 5.24997" stroke="#757575" stroke-width="5" stroke-linecap="round" stroke-linejoin="round"/>
<path d="M15.3799 31.5999C18.0722 32.6428 20.9506 33.1193 23.8353 32.9997C26.7201 32.88 29.5491 32.1668 32.1458 30.9046C34.7425 29.6424 37.051 27.8583 38.9272 25.6637C40.8033 23.4691 42.2068 20.9113 43.0499 18.1499" stroke="#757575" stroke-width="5" stroke-linecap="round" stroke-linejoin="round"/>
<path d="M3 18.5601C4.21734 22.2609 6.44022 25.5502 9.42001 28.0601" stroke="#757575" stroke-width="5" stroke-linecap="round" stroke-linejoin="round"/>
<path d="M36.1299 3L8.12988 32" stroke="#757575" stroke-width="4" stroke-linecap="round" stroke-linejoin="round"/>
</svg>
