<svg width="46" height="37" viewBox="0 0 46 37" fill="none" xmlns="http://www.w3.org/2000/svg">
<path d="M23.0299 25.46C26.9567 25.46 30.1399 22.2768 30.1399 18.35C30.1399 14.4233 26.9567 11.24 23.0299 11.24C19.1032 11.24 15.9199 14.4233 15.9199 18.35C15.9199 22.2768 19.1032 25.46 23.0299 25.46Z" stroke="#757575" stroke-width="5" stroke-linecap="round" stroke-linejoin="round"/>
<path d="M3 18.6199C4.2459 14.33 6.82735 10.5491 10.3692 7.82674C13.9111 5.10441 18.2288 3.58247 22.6949 3.48211C27.161 3.38175 31.5427 4.70821 35.2033 7.2687C38.8639 9.82919 41.6126 13.4903 43.05 17.7199" stroke="#757575" stroke-width="5" stroke-linecap="round" stroke-linejoin="round"/>
<path d="M3 19.0599C4.3875 23.3038 7.09154 26.995 10.7195 29.5976C14.3475 32.2002 18.7106 33.5787 23.1753 33.533C27.64 33.4873 31.9739 32.0197 35.5478 29.3434C39.1218 26.6671 41.7497 22.9213 43.05 18.6499" stroke="#757575" stroke-width="5" stroke-linecap="round" stroke-linejoin="round"/>
</svg>
