<svg width="21" height="20" viewBox="0 0 21 20" fill="none" xmlns="http://www.w3.org/2000/svg">
<path d="M15 0.824951C13.26 0.824951 11.59 1.63495 10.5 2.91495C9.41 1.63495 7.74 0.824951 6 0.824951C2.92 0.824951 0.5 3.24495 0.5 6.32495C0.5 10.105 3.9 13.185 9.05 17.865L10.5 19.175L11.95 17.855C17.1 13.185 20.5 10.105 20.5 6.32495C20.5 3.24495 18.08 0.824951 15 0.824951ZM10.6 16.375L10.5 16.475L10.4 16.375C5.64 12.065 2.5 9.21495 2.5 6.32495C2.5 4.32495 4 2.82495 6 2.82495C7.54 2.82495 9.04 3.81495 9.57 5.18495H11.44C11.96 3.81495 13.46 2.82495 15 2.82495C17 2.82495 18.5 4.32495 18.5 6.32495C18.5 9.21495 15.36 12.065 10.6 16.375Z" fill="#F1758F"/>
</svg>
