<svg width="65" height="65" viewBox="0 0 65 65" fill="none" xmlns="http://www.w3.org/2000/svg">
<path d="M32.501 63C49.3457 63 63.001 49.3447 63.001 32.5C63.001 15.6553 49.3457 2 32.501 2C15.6563 2 2.00098 15.6553 2.00098 32.5C2.00098 49.3447 15.6563 63 32.501 63Z" stroke="black" stroke-width="4" stroke-linecap="round" stroke-linejoin="round"/>
<path d="M40.3439 26.2367C40.3439 30.8098 36.8335 35.9857 32.5011 35.9857C28.1687 35.9857 24.6582 30.8098 24.6582 26.2367C24.6582 21.6637 28.1687 19.4286 32.5011 19.4286C36.8335 19.4286 40.3439 21.6343 40.3439 26.2367Z" stroke="black" stroke-width="4" stroke-linecap="round" stroke-linejoin="round"/>
<path d="M15.0725 57.7715C16.0536 53.8588 18.3037 50.3748 21.4763 47.8562C24.6489 45.3375 28.568 43.924 32.6297 43.8333C36.6915 43.7426 40.6707 44.9797 43.9543 47.3542C47.2378 49.7286 49.6436 53.1086 50.8011 56.9735" stroke="black" stroke-width="4" stroke-linecap="round" stroke-linejoin="round"/>
</svg>
