<svg width="44" height="38" viewBox="0 0 44 38" fill="none" xmlns="http://www.w3.org/2000/svg">
<path d="M41.0832 7.58219H37.5832V11.0822H36.4165V7.58219H32.9165V6.41553H36.4165V2.91553H37.5832V6.41553H41.0832V7.58219Z" fill="#78C354"/>
<path d="M30.0625 8.51563H26.3654L24.5703 5.81867C24.4117 5.58088 24.1967 5.38599 23.9445 5.25134C23.6924 5.11669 23.4109 5.04645 23.125 5.04688H13.875C13.5891 5.04645 13.3076 5.11669 13.0555 5.25134C12.8033 5.38599 12.5883 5.58088 12.4297 5.81867L10.6332 8.51563H6.9375C5.8642 8.51563 4.83486 8.94199 4.07593 9.70093C3.31699 10.4599 2.89063 11.4892 2.89062 12.5625V28.75C2.89062 29.8233 3.31699 30.8526 4.07593 31.6116C4.83486 32.3705 5.8642 32.7969 6.9375 32.7969H30.0625C30.5939 32.7969 31.1202 32.6922 31.6112 32.4888C32.1022 32.2855 32.5483 31.9874 32.9241 31.6116C33.2999 31.2358 33.5979 30.7897 33.8013 30.2987C34.0047 29.8077 34.1094 29.2814 34.1094 28.75V12.5625C34.1094 12.0311 34.0047 11.5048 33.8013 11.0138C33.5979 10.5228 33.2999 10.0767 32.9241 9.70093C32.5483 9.32514 32.1022 9.02705 31.6112 8.82368C31.1202 8.6203 30.5939 8.51563 30.0625 8.51563ZM30.6406 28.75C30.6406 28.9033 30.5797 29.0504 30.4713 29.1588C30.3629 29.2672 30.2158 29.3281 30.0625 29.3281H6.9375C6.78417 29.3281 6.63712 29.2672 6.5287 29.1588C6.42028 29.0504 6.35938 28.9033 6.35938 28.75V12.5625C6.35938 12.4092 6.42028 12.2621 6.5287 12.1537C6.63712 12.0453 6.78417 11.9844 6.9375 11.9844H11.5625C11.8484 11.9848 12.1299 11.9146 12.382 11.7799C12.6342 11.6453 12.8492 11.4504 13.0078 11.2126L14.8029 8.51563H22.1957L23.9922 11.2126C24.1508 11.4504 24.3658 11.6453 24.618 11.7799C24.8701 11.9146 25.1516 11.9848 25.4375 11.9844H30.0625C30.2158 11.9844 30.3629 12.0453 30.4713 12.1537C30.5797 12.2621 30.6406 12.4092 30.6406 12.5625V28.75ZM18.5 13.1406C17.1279 13.1406 15.7866 13.5475 14.6457 14.3098C13.5049 15.0721 12.6157 16.1556 12.0906 17.4233C11.5655 18.6909 11.4281 20.0858 11.6958 21.4316C11.9635 22.7773 12.6242 24.0135 13.5944 24.9837C14.5647 25.9539 15.8008 26.6146 17.1466 26.8823C18.4923 27.15 19.8872 27.0126 21.1549 26.4875C22.4225 25.9625 23.506 25.0733 24.2683 23.9324C25.0306 22.7915 25.4375 21.4502 25.4375 20.0781C25.4356 18.2388 24.7041 16.4753 23.4034 15.1747C22.1028 13.8741 20.3394 13.1425 18.5 13.1406ZM18.5 23.5469C17.8139 23.5469 17.1433 23.3434 16.5729 22.9623C16.0024 22.5811 15.5578 22.0394 15.2953 21.4056C15.0328 20.7717 14.9641 20.0743 15.0979 19.4014C15.2317 18.7285 15.5621 18.1105 16.0472 17.6254C16.5323 17.1402 17.1504 16.8099 17.8233 16.676C18.4962 16.5422 19.1936 16.6109 19.8274 16.8734C20.4613 17.136 21.003 17.5806 21.3842 18.151C21.7653 18.7214 21.9688 19.3921 21.9688 20.0781C21.9688 20.9981 21.6033 21.8804 20.9528 22.5309C20.3023 23.1814 19.42 23.5469 18.5 23.5469Z" fill="#78C354" fill-opacity="0.85"/>
</svg>
