<svg width="30" height="30" viewBox="0 0 30 30" fill="none" xmlns="http://www.w3.org/2000/svg">
<path d="M25.4125 4.58748C25.1761 4.35269 24.8795 4.18763 24.5553 4.11045C24.2311 4.03326 23.8919 4.04694 23.575 4.14998L5.28753 10.25C4.94837 10.3574 4.64867 10.563 4.42627 10.8407C4.20387 11.1184 4.06876 11.4558 4.03799 11.8103C4.00723 12.1647 4.0822 12.5203 4.25342 12.8322C4.42465 13.1441 4.68446 13.3982 5.00003 13.5625L12.5875 17.3125L16.3375 24.925C16.4883 25.2229 16.7189 25.4731 17.0037 25.6475C17.2884 25.8219 17.6161 25.9136 17.95 25.9125H18.075C18.4327 25.8861 18.7741 25.7529 19.055 25.5299C19.3358 25.307 19.5432 25.0048 19.65 24.6625L25.8375 6.42498C25.948 6.10989 25.9667 5.76991 25.8915 5.4446C25.8162 5.11929 25.6502 4.82205 25.4125 4.58748ZM6.06253 11.975L22.025 6.64998L13.1625 15.5125L6.06253 11.975ZM18.0375 23.9375L14.4875 16.8375L23.35 7.97498L18.0375 23.9375Z" fill="white"/>
</svg>
