<svg width="39" height="41" viewBox="0 0 39 41" fill="none" xmlns="http://www.w3.org/2000/svg">
<path d="M33.5389 38.9999H5.15464C4.71907 39.0026 4.29795 38.8438 3.97258 38.5542C3.64721 38.2646 3.44064 37.8648 3.39274 37.4318L2.00084 16.5445C1.99351 16.3111 2.03405 16.0787 2.12 15.8616C2.20594 15.6446 2.33545 15.4474 2.50055 15.2823C2.66564 15.1172 2.86283 14.9877 3.07991 14.9017C3.29699 14.8158 3.52938 14.7752 3.76275 14.7826H35.2215C35.6888 14.7826 36.1369 14.9682 36.4674 15.2986C36.7978 15.6291 36.9834 16.0772 36.9834 16.5445L35.3008 37.4494C35.2488 37.8792 35.0405 38.2748 34.7156 38.5607C34.3906 38.8467 33.9717 39.003 33.5389 38.9999V38.9999Z" stroke="#3A4651" stroke-width="4" stroke-linecap="round" stroke-linejoin="round"/>
<path d="M10.6777 20.5V10.8095C10.6777 8.47308 11.6059 6.23234 13.258 4.58024C14.9101 2.92814 17.1508 2 19.4872 2C21.8237 2 24.0644 2.92814 25.7165 4.58024C27.3686 6.23234 28.2968 8.47308 28.2968 10.8095V20.5" stroke="#3A4651" stroke-width="4" stroke-linecap="round" stroke-linejoin="round"/>
</svg>
