<svg width="50" height="45" viewBox="0 0 50 45" fill="none" xmlns="http://www.w3.org/2000/svg">
<path d="M11.0346 26.4684L11.0346 26.4684L1.63079 20.2775C-0.441454 18.9133 0.5245 15.6893 3.00548 15.6893H15.3106C16.7867 15.6893 18.1043 14.7633 18.604 13.3742L22.6405 2.15373C23.4337 -0.0512421 26.5521 -0.0512434 27.3453 2.15372L31.3818 13.3742C31.8815 14.7633 33.199 15.6893 34.6752 15.6893H46.8732C49.3617 15.6893 50.3222 18.9292 48.2357 20.2854L38.8726 26.3717C37.5108 27.2569 36.937 28.9627 37.4867 30.491L37.9572 30.3217L37.4867 30.491L41.2078 40.8346C42.0212 43.0956 39.4877 45.0903 37.4807 43.7689L37.2058 44.1865L37.4807 43.7689L26.9175 36.8147C26.9174 36.8147 26.9174 36.8147 26.9174 36.8147C25.7496 36.0458 24.2362 36.0458 23.0684 36.8147C23.0683 36.8147 23.0683 36.8147 23.0683 36.8147L12.4668 43.7942C10.463 45.1133 7.93192 43.1269 8.73706 40.8671L12.407 30.5665C12.9482 29.0475 12.3816 27.3552 11.0346 26.4684Z" stroke="#EDC158"/>
<path fill-rule="evenodd" clip-rule="evenodd" d="M24.8789 36.744C24.6558 36.8235 24.44 36.9303 24.2364 37.0643L13.6731 44.0185C11.2647 45.6041 8.22452 43.2105 9.20062 40.4973L12.9217 30.1537C13.3929 28.8437 12.901 27.3816 11.7338 26.6229L2.37072 20.5366C-0.133083 18.9091 1.01952 15.0213 4.00572 15.0213H16.2037C17.469 15.0213 18.5983 14.2275 19.0266 13.0369L23.0631 1.81647C23.4006 0.878423 24.0887 0.272931 24.8789 0V36.744Z" fill="#EDC158"/>
</svg>
