<svg width="50" height="46" viewBox="0 0 50 46" fill="none" xmlns="http://www.w3.org/2000/svg">
<path d="M46.8803 16.5517C49.3688 16.5517 50.3293 19.7915 48.2428 21.1478L38.8797 27.2341C37.5179 28.1193 36.944 29.825 37.4939 31.3534L41.215 41.6969C42.0283 43.9579 39.4948 45.9526 37.4878 44.6313L26.9246 37.677C25.7567 36.9082 24.2433 36.9082 23.0754 37.677L12.4739 44.6565C10.4701 45.9757 7.93902 43.9892 8.74417 41.7294L12.4141 31.4288C12.9553 29.9098 12.3886 28.2175 11.0417 27.3308L1.6379 21.1398C-0.43434 19.7756 0.531599 16.5517 3.01259 16.5517H15.3177C16.7939 16.5517 18.1114 15.6255 18.6111 14.2365L22.6476 3.01608C23.4408 0.811118 26.5592 0.811117 27.3524 3.01608L31.3889 14.2365C31.8886 15.6255 33.2061 16.5517 34.6823 16.5517H46.8803Z" stroke="#EFC25A"/>
</svg>
