<svg width="50" height="46" viewBox="0 0 50 46" fill="none" xmlns="http://www.w3.org/2000/svg">
<path d="M48.5153 21.567C51.0191 19.9395 49.8665 16.0517 46.8803 16.0517H34.6823C33.417 16.0517 32.2877 15.2579 31.8594 14.0673L27.8229 2.84683C26.871 0.200868 23.129 0.200871 22.1771 2.84683L18.1406 14.0673C17.7123 15.2579 16.583 16.0517 15.3177 16.0517H3.01259C0.0353937 16.0517 -1.12372 19.9204 1.36296 21.5575L10.7668 27.7484C11.9213 28.5085 12.407 29.959 11.9431 31.261L8.27317 41.5616C7.30699 44.2734 10.3443 46.6571 12.7488 45.0742L23.3504 38.0947C24.3514 37.4356 25.6486 37.4356 26.6496 38.0947L37.2129 45.0489C39.6213 46.6345 42.6615 44.2409 41.6854 41.5277L37.9643 31.1841C37.4931 29.8741 37.985 28.412 39.1522 27.6533L48.5153 21.567Z" fill="#EDC158"/>
</svg>
