<svg width="16" height="15" viewBox="0 0 16 15" fill="none" xmlns="http://www.w3.org/2000/svg">
<path d="M14.6729 7.17172C15.7436 6.36183 15.1709 4.65516 13.8283 4.65516H11.3992C10.7853 4.65516 10.243 4.25519 10.0617 3.66867L9.33751 1.32637C8.93087 0.011055 7.06908 0.0110552 6.66244 1.32637L5.9383 3.66867C5.75697 4.25519 5.21467 4.65516 4.60076 4.65516H2.12961C0.791418 4.65516 0.215918 6.35272 1.27822 7.16652L3.39468 8.78789C3.85883 9.14347 4.05313 9.75006 3.88195 10.3091L3.11295 12.8207C2.71415 14.1232 4.22166 15.1703 5.303 14.3419L7.14859 12.9281C7.65095 12.5432 8.34901 12.5432 8.85137 12.9281L10.6807 14.3294C11.7635 15.159 13.2725 14.1078 12.8696 12.8046L12.0899 10.2827C11.9159 9.71972 12.113 9.10806 12.5829 8.7526L14.6729 7.17172Z" fill="#EDC158"/>
</svg>
