<svg width="82" height="81" viewBox="0 0 82 81" fill="none" xmlns="http://www.w3.org/2000/svg">
<path d="M79.1177 36.2636C82.9417 33.3711 80.8961 27.2759 76.1014 27.2759H56.521C54.3285 27.2759 52.3917 25.8474 51.7441 23.7527L45.7769 4.45133C44.3246 -0.246228 37.6754 -0.246228 36.2231 4.45133L30.2559 23.7527C29.6083 25.8474 27.6715 27.2759 25.479 27.2759H5.74861C0.969354 27.2759 -1.086 33.3386 2.70792 36.245L19.0763 48.7844C20.734 50.0544 21.4279 52.2207 20.8165 54.2175L14.7368 74.074C13.3125 78.7258 18.6964 82.4655 22.5584 79.507L37.9593 67.7087C39.7535 66.3343 42.2465 66.3343 44.0407 67.7087L59.3834 79.4624C63.2509 82.4252 68.64 78.6709 67.201 74.0164L61.0355 54.0737C60.414 52.0632 61.1178 49.8786 62.7962 48.6091L79.1177 36.2636Z" fill="#EDC158"/>
</svg>
