<?xml version="1.0" encoding="utf-8"?>
<!-- Generator: Adobe Illustrator 26.2.1, SVG Export Plug-In . SVG Version: 6.00 Build 0)  -->
<svg version="1.1" id="Layer_1" xmlns="http://www.w3.org/2000/svg" xmlns:xlink="http://www.w3.org/1999/xlink" x="0px" y="0px"
	 viewBox="0 0 50 46" style="enable-background:new 0 0 50 46;" xml:space="preserve">
<style type="text/css">
	.st0{fill:none;stroke:#EFC25A;stroke-width:4;}
</style>
<path class="st0" d="M44.5,17.1c2.2,0,3.1,2.9,1.2,4.1l-8.3,5.4c-1.2,0.8-1.7,2.3-1.2,3.7l3.3,9.2c0.7,2-1.5,3.8-3.3,2.6l-9.4-6.2
	c-1-0.7-2.4-0.7-3.4,0l-9.4,6.2c-1.8,1.2-4-0.6-3.3-2.6l3.3-9.2c0.5-1.4,0-2.9-1.2-3.6l-8.4-5.5c-1.8-1.2-1-4.1,1.2-4.1h10.9
	c1.3,0,2.5-0.8,2.9-2.1L23,5c0.7-2,3.5-2,4.2,0l3.6,10c0.4,1.2,1.6,2.1,2.9,2.1H44.5z"/>
</svg>
