<svg width="32" height="28" viewBox="0 0 32 28" fill="none" xmlns="http://www.w3.org/2000/svg">
<path d="M27.3726 19.4346H10.8586L7.34961 4.54102H30.2858L27.3726 19.4346Z" stroke="white" stroke-width="3" stroke-linecap="round" stroke-linejoin="round"/>
<path d="M14.4991 25.6898C14.9926 25.6898 15.3927 25.2897 15.3927 24.7962C15.3927 24.3027 14.9926 23.9026 14.4991 23.9026C14.0056 23.9026 13.6055 24.3027 13.6055 24.7962C13.6055 25.2897 14.0056 25.6898 14.4991 25.6898Z" stroke="white" stroke-width="3" stroke-linecap="round" stroke-linejoin="round"/>
<path d="M23.4346 25.6898C23.9282 25.6898 24.3282 25.2897 24.3282 24.7962C24.3282 24.3027 23.9282 23.9026 23.4346 23.9026C22.9411 23.9026 22.541 24.3027 22.541 24.7962C22.541 25.2897 22.9411 25.6898 23.4346 25.6898Z" stroke="white" stroke-width="3" stroke-linecap="round" stroke-linejoin="round"/>
<path d="M28.4986 11.9878H20.1582" stroke="white" stroke-width="3" stroke-linecap="round" stroke-linejoin="round"/>
<path d="M7.38572 4.64808L5.85466 3.12298C5.11684 2.38324 4.12823 1.94741 3.08445 1.90171L2.28613 1.86597" stroke="white" stroke-width="3" stroke-linecap="round" stroke-linejoin="round"/>
</svg>
