<svg width="48" height="35" viewBox="0 0 48 35" fill="none" xmlns="http://www.w3.org/2000/svg">
<path d="M44.47 27.2051C43.7566 27.2051 43.0723 26.9216 42.5679 26.4172C42.0634 25.9127 41.78 25.2285 41.78 24.5151C41.78 23.8016 42.0634 23.1174 42.5679 22.613C43.0723 22.1085 43.7566 21.8251 44.47 21.8251H44.55V15.0351H44.47C43.7836 14.9933 43.1391 14.6911 42.6678 14.1903C42.1966 13.6895 41.9342 13.0277 41.9342 12.3401C41.9342 11.6524 42.1966 10.9907 42.6678 10.4899C43.1391 9.98905 43.7836 9.68691 44.47 9.64508H44.55V3.17505H3V9.64508C3.68378 9.68683 4.32587 9.98787 4.79529 10.4868C5.2647 10.9858 5.52606 11.645 5.52606 12.3301C5.52606 13.0151 5.2647 13.6744 4.79529 14.1733C4.32587 14.6723 3.68378 14.9733 3 15.0151V21.8251C3.68378 21.8668 4.32587 22.1679 4.79529 22.6668C5.2647 23.1658 5.52606 23.825 5.52606 24.5101C5.52606 25.1951 5.2647 25.8544 4.79529 26.3533C4.32587 26.8523 3.68378 27.1533 3 27.1951V31.8251H44.55V27.2051H44.47Z" stroke="#78C354" stroke-width="5" stroke-linejoin="round"/>
<path d="M14.8495 16.1749C14.0682 15.2315 13.6406 14.0449 13.6406 12.8199C13.6406 11.595 14.0682 10.4084 14.8495 9.46497C15.724 8.65459 16.8723 8.20435 18.0645 8.20435C19.2568 8.20435 20.405 8.65459 21.2795 9.46497C22.0608 10.4084 22.4884 11.595 22.4884 12.8199C22.4884 14.0449 22.0608 15.2315 21.2795 16.1749C20.4083 16.9919 19.2588 17.4466 18.0645 17.4466C16.8702 17.4466 15.7207 16.9919 14.8495 16.1749ZM17.9295 26.265C17.3795 26.265 17.1695 25.885 17.4595 25.415L22.0295 18.0449C22.3924 17.479 22.7262 16.8949 23.0295 16.2949L26.1895 9.56494C26.3305 9.30393 26.5359 9.08334 26.7862 8.92407C27.0365 8.7648 27.3233 8.67217 27.6195 8.65497H29.9995C30.5495 8.65497 30.7495 9.03493 30.4595 9.49493L25.5995 17.075C25.2491 17.6411 24.9352 18.2289 24.6595 18.835L21.7795 25.355C21.6441 25.6163 21.4427 25.8377 21.1954 25.9973C20.9481 26.1569 20.6634 26.2492 20.3695 26.265H17.9295ZM18.8595 14.1149C19.0719 13.7158 19.1722 13.2665 19.1495 12.8149C19.1769 12.3577 19.0801 11.9016 18.8695 11.4949C18.7892 11.3535 18.6729 11.236 18.5323 11.1542C18.3918 11.0724 18.2321 11.0292 18.0695 11.0292C17.9069 11.0292 17.7472 11.0724 17.6067 11.1542C17.4662 11.236 17.3498 11.3535 17.2695 11.4949C17.0651 11.9072 16.9721 12.3657 16.9995 12.825C16.9783 13.2764 17.0785 13.7253 17.2895 14.1249C17.3646 14.2696 17.478 14.391 17.6173 14.4756C17.7566 14.5603 17.9165 14.6051 18.0795 14.6051C18.2425 14.6051 18.4024 14.5603 18.5417 14.4756C18.6811 14.391 18.7944 14.2696 18.8695 14.1249L18.8595 14.1149ZM26.3795 25.4949C25.5974 24.5499 25.1695 23.3616 25.1695 22.1349C25.1695 20.9083 25.5974 19.72 26.3795 18.775C27.2524 17.9653 28.3989 17.5153 29.5895 17.5153C30.7801 17.5153 31.9267 17.9653 32.7995 18.775C33.5762 19.7225 34.0007 20.9098 34.0007 22.1349C34.0007 23.3601 33.5762 24.5474 32.7995 25.4949C31.9267 26.3046 30.7801 26.7546 29.5895 26.7546C28.3989 26.7546 27.2524 26.3046 26.3795 25.4949ZM30.3795 23.4249C30.5944 23.0267 30.6948 22.5767 30.6695 22.1249C30.6979 21.6677 30.6011 21.2113 30.3895 20.8049C30.3144 20.6617 30.2004 20.5427 30.0607 20.4613C29.921 20.3799 29.7611 20.3396 29.5995 20.345C29.4358 20.3422 29.2746 20.3845 29.1334 20.4675C28.9923 20.5504 28.8767 20.6706 28.7995 20.8149C28.5848 21.2168 28.4845 21.67 28.5095 22.1249C28.4883 22.5764 28.5885 23.0253 28.7995 23.4249C28.8769 23.5668 28.9912 23.6853 29.1302 23.7678C29.2692 23.8503 29.4279 23.8938 29.5895 23.8938C29.7512 23.8938 29.9098 23.8503 30.0488 23.7678C30.1878 23.6853 30.3021 23.5668 30.3795 23.4249Z" fill="#78C354"/>
</svg>
