<svg width="46" height="32" viewBox="0 0 46 32" fill="none" xmlns="http://www.w3.org/2000/svg">
<path d="M43.47 25.53C42.7566 25.53 42.0723 25.2466 41.5679 24.7421C41.0634 24.2377 40.78 23.5535 40.78 22.84C40.78 22.1266 41.0634 21.4424 41.5679 20.9379C42.0723 20.4335 42.7566 20.15 43.47 20.15H43.55V13.36H43.47C42.7836 13.3182 42.1391 13.0161 41.6678 12.5153C41.1966 12.0144 40.9342 11.3527 40.9342 10.665C40.9342 9.97739 41.1966 9.31563 41.6678 8.81482C42.1391 8.314 42.7836 8.01186 43.47 7.97003H43.55V1.5H2V7.97003C2.68378 8.01178 3.32587 8.31282 3.79529 8.81177C4.2647 9.31072 4.52606 9.96998 4.52606 10.655C4.52606 11.3401 4.2647 11.9993 3.79529 12.4983C3.32587 12.9972 2.68378 13.2983 2 13.34V20.15C2.68378 20.1918 3.32587 20.4928 3.79529 20.9918C4.2647 21.4907 4.52606 22.15 4.52606 22.835C4.52606 23.5201 4.2647 24.1793 3.79529 24.6783C3.32587 25.1772 2.68378 25.4783 2 25.52V30.15H43.55V25.53H43.47Z" stroke="white" stroke-width="3" stroke-linejoin="round"/>
<path d="M13.8495 14.4999C13.0682 13.5564 12.6406 12.3699 12.6406 11.1449C12.6406 9.91992 13.0682 8.73337 13.8495 7.78992C14.724 6.97955 15.8723 6.5293 17.0645 6.5293C18.2568 6.5293 19.405 6.97955 20.2795 7.78992C21.0608 8.73337 21.4884 9.91992 21.4884 11.1449C21.4884 12.3699 21.0608 13.5564 20.2795 14.4999C19.4083 15.3168 18.2588 15.7715 17.0645 15.7715C15.8702 15.7715 14.7207 15.3168 13.8495 14.4999ZM16.9295 24.5899C16.3795 24.5899 16.1695 24.2099 16.4595 23.7399L21.0295 16.3699C21.3924 15.804 21.7262 15.2199 22.0295 14.6199L25.1895 7.88989C25.3305 7.62889 25.5359 7.40829 25.7862 7.24902C26.0365 7.08975 26.3233 6.99712 26.6195 6.97992H28.9995C29.5495 6.97992 29.7495 7.35989 29.4595 7.81989L24.5995 15.3999C24.2491 15.966 23.9352 16.5539 23.6595 17.1599L20.7795 23.6799C20.6441 23.9413 20.4427 24.1627 20.1954 24.3223C19.9481 24.4819 19.6634 24.5741 19.3695 24.5899H16.9295ZM17.8595 12.4399C18.0719 12.0407 18.1722 11.5915 18.1495 11.1399C18.1769 10.6827 18.0801 10.2266 17.8695 9.81989C17.7892 9.67849 17.6729 9.56093 17.5323 9.47913C17.3918 9.39732 17.2321 9.35419 17.0695 9.35419C16.9069 9.35419 16.7472 9.39732 16.6067 9.47913C16.4662 9.56093 16.3498 9.67849 16.2695 9.81989C16.0651 10.2321 15.9721 10.6906 15.9995 11.1499C15.9783 11.6014 16.0785 12.0502 16.2895 12.4499C16.3646 12.5946 16.478 12.7159 16.6173 12.8006C16.7566 12.8853 16.9165 12.9301 17.0795 12.9301C17.2425 12.9301 17.4024 12.8853 17.5417 12.8006C17.6811 12.7159 17.7944 12.5946 17.8695 12.4499L17.8595 12.4399ZM25.3795 23.8199C24.5974 22.8748 24.1695 21.6866 24.1695 20.4599C24.1695 19.2332 24.5974 18.045 25.3795 17.0999C26.2524 16.2902 27.3989 15.8403 28.5895 15.8403C29.7801 15.8403 30.9267 16.2902 31.7995 17.0999C32.5762 18.0474 33.0007 19.2347 33.0007 20.4599C33.0007 21.6851 32.5762 22.8724 31.7995 23.8199C30.9267 24.6296 29.7801 25.0795 28.5895 25.0795C27.3989 25.0795 26.2524 24.6296 25.3795 23.8199ZM29.3795 21.7499C29.5944 21.3516 29.6948 20.9017 29.6695 20.4499C29.6979 19.9926 29.6011 19.5362 29.3895 19.1299C29.3144 18.9867 29.2004 18.8676 29.0607 18.7863C28.921 18.7049 28.7611 18.6646 28.5995 18.6699C28.4358 18.6671 28.2746 18.7095 28.1334 18.7924C27.9923 18.8753 27.8767 18.9956 27.7995 19.1399C27.5848 19.5418 27.4845 19.9949 27.5095 20.4499C27.4883 20.9013 27.5885 21.3502 27.7995 21.7499C27.8769 21.8918 27.9912 22.0102 28.1302 22.0927C28.2692 22.1752 28.4279 22.2188 28.5895 22.2188C28.7512 22.2188 28.9098 22.1752 29.0488 22.0927C29.1878 22.0102 29.3021 21.8918 29.3795 21.7499Z" fill="white"/>
</svg>
