<svg id="Layer_1" data-name="Layer 1" xmlns="http://www.w3.org/2000/svg" viewBox="0 0 1392.68 1344.4"><defs><style>.cls-1{fill:#3d9ec9;}.cls-2{fill:#efc25a;}.cls-3{fill:#78c354;}.cls-4{fill:#f2758f;}</style></defs><path d="M111.41,1344.34a298,298,0,0,0,87.18-15.28c74.14-24.55,135.41-57,189.65-95.63a246,246,0,0,0,32.7,18.83c45.51,22.36,94.27,31.34,131.63,36.77,300.85,43.62,618.58-66.22,828.65-286.39a40.85,40.85,0,1,0-58.94-56.57C1130.15,1147.46,840,1247.74,564.46,1208c-31.35-4.37-72-12-107.37-29.16l-.29-.29c27.8-24.79,53.95-51.23,79.86-79,66.22-2.48,134.63-22.9,196.73-60.21,85-51.52,159.67-131.09,234.33-251.22C1050,656.19,1092.5,542.51,1101.24,430.54c1.89-25.62,2.47-55.6-10.34-84.47-6.79-15.82-17.17-29.69-30.51-42.26,14.45-25.61,27-60.21,15-97-7.62-24-25.08-45.22-50.12-61.32a168.61,168.61,0,0,0-38.13-18c-15.82-52.59-46.34-91.55-90-112.27C845.41-9.6,757.94-16.15,635.29,92,517.59,196.16,425.75,307.31,362.53,422.58,296.84,467.26,235.81,519,181.86,577.1,100.11,664.29,70.12,746.86,92.49,822.35c7.08,23.73,18.82,42.26,34.88,55.07,18,14.17,38.43,19.36,56.14,22.36a380.87,380.87,0,0,0,49.05,4.61,428.62,428.62,0,0,0,1.89,56.14c7.91,83.93,40.61,160.25,90.48,217.16-44.15,29.69-93.73,53.65-151.76,73.55-98.1,33.76-115.8-24-154.32,3.44C-30.94,1290.14,24.09,1346.48,111.41,1344.34Zm147.3-591.46a629.09,629.09,0,0,0-17.42,70,294.28,294.28,0,0,1-44.15-3.84c-9.8-1.65-16.35-3.54-19.07-5.72-1.89-1.65-4.65-6-7.08-14.17-16.88-57,29.16-122.06,70.59-166.5,16.88-18,34.35-35.18,52.3-51.77C275.64,637.85,263.61,695.63,258.71,752.88ZM501,1017.44c-29.7-2.48-58-9.8-83.4-22.37-20.43-10.09-48-27.8-62.15-55.31-7.08-14.16-10.92-30.81-13.1-47.16,103.29-24.5,195.13-82.81,263.49-131.86A2007.69,2007.69,0,0,0,823.58,579.53c-47.69,101.11-112,198.09-190.76,286.68-23.73,26.44-46.05,52.3-67.88,77.68C542.91,969.5,522,994,501,1017.44ZM967.48,425.88c15-18,29.69-35.95,44.15-54.48A32.75,32.75,0,0,1,1016,379c5.43,12.28,4.9,29.7,3.83,45-7.62,98.63-46.33,200.56-121.24,321C830.71,853.4,764.78,924.82,691.23,969.21a360.08,360.08,0,0,1-67.05,31.34c.82-1.06,1.89-2.18,2.72-3.25,21.54-25.08,43.61-50.7,67.05-76.85C825.76,772.19,920.08,600.83,967.48,425.88ZM917.07,199.7a392.94,392.94,0,0,1-.29,47.69c-44.44-5.19-93.2-3-148,6.55,9.26-5.44,18.82-10.34,28.33-15.53C832.31,219.88,876.22,201.59,917.07,199.7ZM689.53,153.36c39.25-34.88,92.08-71.65,139-71.65A75,75,0,0,1,862,89.08c14.16,6.79,25.08,17.71,33,30.52-41.68,5.19-87.48,20.71-136.24,46.57A1040.7,1040.7,0,0,0,532.87,327.78c-4.9,2.18-9.8,4.37-14.46,6.55Q590.4,241.11,689.53,153.36Zm-350.14,615c10.62-33,24.55-66.75,41.67-101.64,49.35-100.57,116.93-192.12,197.56-270a1019.19,1019.19,0,0,1,158.07-52.59c65.93-15.82,121.24-21,169.22-15.53-3.54,19.61-7.91,39-12.81,58.61a1907.09,1907.09,0,0,1-334.9,307.4c-81.75,58.61-154.24,96.45-220.7,115C337.74,795.91,338.27,782.28,339.39,768.4Zm51.23,359.41c-22.36-24.26-40.61-54.24-53.66-86.94a244.45,244.45,0,0,0,44.69,27.51A288.84,288.84,0,0,0,434,1088C419.78,1102,405.32,1115.29,390.62,1127.81Z"/><path class="cls-1" d="M434,1088c-14.17,13.87-28.63,27.26-43.33,39.78-22.36-24.26-40.61-54.24-53.66-86.94a244.11,244.11,0,0,0,44.69,27.51A284,284,0,0,0,434,1088Z"/><path class="cls-2" d="M293.88,580.94c-18.24,56.95-30.22,114.74-35.17,171.94a629.09,629.09,0,0,0-17.42,70,294.28,294.28,0,0,1-44.15-3.84c-9.8-1.65-16.35-3.54-19.07-5.72-1.89-1.65-4.65-6-7.08-14.17-16.88-57,29.16-122.06,70.59-166.5C258.46,614.7,275.88,597.53,293.88,580.94Z"/><path class="cls-3" d="M823.63,579.58c-47.69,101.11-112,198.09-190.77,286.68-23.72,26.44-46,52.3-67.87,77.67-22.08,25.62-43,50.12-64,73.56-29.69-2.48-58-9.81-83.4-22.37-20.43-10.09-48-27.8-62.15-55.31-7.08-14.17-10.92-30.81-13.1-47.16,103.29-24.5,195.13-82.81,263.49-131.86A2009.76,2009.76,0,0,0,823.63,579.58Z"/><path class="cls-2" d="M1019.83,423.94c-7.62,98.63-46.34,200.56-121.24,321C830.71,853.36,764.78,924.77,691.23,969.16a360.38,360.38,0,0,1-67.05,31.34c.82-1.06,1.89-2.18,2.72-3.25,21.54-25.08,43.61-50.7,67.05-76.85C825.81,772.19,920.13,600.78,967.53,425.83c15-18,29.69-35.95,44.15-54.48A32.35,32.35,0,0,1,1016,379C1021.43,391.24,1020.89,408.7,1019.83,423.94Z"/><path class="cls-4" d="M905.91,328.6c-3.54,19.61-7.91,39-12.81,58.61a1907.09,1907.09,0,0,1-334.9,307.4c-81.75,58.61-154.24,96.45-220.7,115,.29-13.63.82-27.26,1.89-41.14,10.62-33,24.55-66.76,41.67-101.64,49.35-100.57,116.93-192.12,197.56-270a1019.19,1019.19,0,0,1,158.07-52.59C802.62,328.31,857.93,323.12,905.91,328.6Z"/><path class="cls-3" d="M916.78,247.39c-44.44-5.19-93.2-3-148,6.55,9.26-5.44,18.82-10.34,28.33-15.53,35.17-18.53,79-36.77,119.88-38.71A374.47,374.47,0,0,1,916.78,247.39Z"/><path class="cls-1" d="M895,119.6c-41.68,5.19-87.48,20.71-136.24,46.57A1040.46,1040.46,0,0,0,532.87,327.78c-4.9,2.18-9.8,4.37-14.46,6.55q72-93.22,171.12-180.92c39.25-34.88,92.08-71.66,139-71.66A75,75,0,0,1,862,89.13C876.22,95.87,887.09,106.79,895,119.6Z"/></svg>